# xmcd
#
# Track frame offsets:
# 150
# 11581
# 21433
# 31009
# 42760
# 57160
# 67518
# 81369
# 92022
# 104768
# 115903
# 127224
# 137750
# 148865
#
# Disc length: 2125 seconds
#
#
# Revision: 1
# Processed by: cddbd v1.5.2PL0 Copyright (c) Steve Scherf et al.
# Submitted via: FreeRIP 2.951 
#
DISCID=bf084b0e
DTITLE=Patsy Cline - Patsy Cline CD3
DYEAR=1900
DGENRE=Country
TTITLE0=Crazy Dreams
TTITLE1=I'm Blue Again
TTITLE2=I'm Moving On
TTITLE3=A Poor Man's Roses (Or a Rich Man's Gold)
TTITLE4=Then You'll Know
TTITLE5=How Can I Face Tomorrow
TTITLE6=A Church, A Courtroom, and Then Goodbye
TTITLE7=Got  A Lot Of Rhythm In My Soul
TTITLE8=Just A Closer Walk With Thee
TTITLE9=A Stranger In My Arms
TTITLE10=That Wonderful Someone
TTITLE11=Lovesick Blues
TTITLE12=Don;t Ever Leave Me
TTITLE13=Stop, Look And Listen!
EXTD=Brittel
EXTT0=
EXTT1=
EXTT2=
EXTT3=
EXTT4=
EXTT5=
EXTT6=
EXTT7=
EXTT8=
EXTT9=
EXTT10=
EXTT11=
EXTT12=
EXTT13=
PLAYORDER=
